<?xml version="1.0" encoding="UTF-8" standalone="no"?>
<svg
   xmlns:dc="http://purl.org/dc/elements/1.1/"
   xmlns:cc="http://creativecommons.org/ns#"
   xmlns:rdf="http://www.w3.org/1999/02/22-rdf-syntax-ns#"
   xmlns:svg="http://www.w3.org/2000/svg"
   xmlns="http://www.w3.org/2000/svg"
   xmlns:sodipodi="http://sodipodi.sourceforge.net/DTD/sodipodi-0.dtd"
   xmlns:inkscape="http://www.inkscape.org/namespaces/inkscape"
   inkscape:export-ydpi="150"
   inkscape:export-xdpi="150"
   inkscape:export-filename="/Users/lorenzo/Desktop/toto.png"
   inkscape:version="1.0.1 (c497b03c, 2020-09-10)"
   sodipodi:docname="W_bat copie.svg"
   xml:space="preserve"
   style="enable-background:new 0 0 73.7 73.7;"
   viewBox="0 0 73.7 73.7"
   y="0px"
   x="0px"
   id="Capa_1"
   version="1.0">
  <metadata
   id="metadata1782">
    <rdf:RDF>
      <cc:Work
   rdf:about="">
        <dc:format>image/svg+xml</dc:format>






        <dc:type
   rdf:resource="http://purl.org/dc/dcmitype/StillImage" />






      <dc:title />





</cc:Work>






    </rdf:RDF>






  </metadata>






  <defs
   id="defs1780"><inkscape:path-effect
   effect="spiro"
   id="path-effect887"
   is_visible="true"
   lpeversion="1" />
    <inkscape:path-effect
   only_selected="false"
   apply_with_weight="true"
   apply_no_weight="true"
   helper_size="0"
   steps="2"
   weight="33.333333"
   is_visible="true"
   id="path-effect1805"
   effect="bspline" />






    <inkscape:path-effect
   end_linecap_type="zerowidth"
   miter_limit="4"
   linejoin_type="extrp_arc"
   start_linecap_type="zerowidth"
   interpolator_beta="0.2"
   interpolator_type="CubicBezierJohan"
   sort_points="true"
   offset_points="0,0.5"
   is_visible="true"
   id="path-effect1801"
   effect="powerstroke" />






    <inkscape:path-effect
   is_visible="true"
   id="path-effect1799"
   effect="spiro" />






  
    
    
    
    
    
    
    
  <clipPath
   clipPathUnits="userSpaceOnUse"
   id="clipPath59">
  <path
   d="M 0,424.887 H 538.6 V 0 H 0 Z"
   id="path57"
   inkscape:connector-curvature="0" />




</clipPath>





  


  


  


  


  


</defs>






  <sodipodi:namedview
   inkscape:document-rotation="0"
   inkscape:current-layer="Capa_1"
   inkscape:window-maximized="0"
   inkscape:window-y="25"
   inkscape:window-x="84"
   inkscape:cy="22.633628"
   inkscape:cx="19.859606"
   inkscape:zoom="5.0866714"
   showgrid="false"
   id="namedview1778"
   inkscape:window-height="1027"
   inkscape:window-width="1600"
   inkscape:pageshadow="2"
   inkscape:pageopacity="0"
   guidetolerance="10"
   gridtolerance="10"
   objecttolerance="10"
   borderopacity="1"
   bordercolor="#666666"
   pagecolor="#ffffff"><inkscape:grid
     type="xygrid"
     id="grid1516" /></sodipodi:namedview>






  <style
   id="style1747"
   type="text/css">
	.st0{fill:#4F4F51;}
</style>






  

























































<g
   id="g197"
   style="fill:#4f4f51;fill-opacity:1;stroke-width:1.58662"
   transform="matrix(0.60434767,0,0,0.65730818,-58.222353,9.3465469)">
  <g
   style="opacity:1;fill:#4f4f51;fill-opacity:1;stroke-width:1.58662;stop-opacity:1"
   id="g265"
   transform="matrix(1.3333333,0,0,-1.3333333,175.79735,43.509365)">
  <path
   d="m 0,0 c -0.334,0 -0.66,0.167 -0.849,0.472 -0.293,0.468 -0.149,1.085 0.32,1.377 L 24.024,17.133 15.589,17.766 -12.656,2.319 c -0.485,-0.266 -1.092,-0.088 -1.357,0.398 -0.265,0.484 -0.088,1.092 0.398,1.356 l 28.504,15.589 c 0.17,0.093 0.365,0.131 0.554,0.12 l 11.784,-0.884 c 0.43,-0.032 0.793,-0.337 0.895,-0.758 0.104,-0.42 -0.075,-0.859 -0.442,-1.087 L 0.527,0.151 C 0.364,0.049 0.181,0 0,0"
   style="fill:#4f4f51;fill-opacity:1;fill-rule:nonzero;stroke:none;stroke-width:1.58662"
   id="path267"
   inkscape:connector-curvature="0" />




</g>



  <g
   style="opacity:1;fill:#4f4f51;fill-opacity:1;stroke-width:1.58662;stop-opacity:1"
   id="g269"
   transform="matrix(1.3333333,0,0,-1.3333333,122.41576,76.642164)">
  <path
   d="m 0,0 c -0.104,0 -0.209,0.017 -0.311,0.05 l -14.108,4.617 c -0.38,0.124 -0.648,0.461 -0.685,0.858 -0.037,0.398 0.166,0.779 0.516,0.97 l 30.812,16.819 c 0.485,0.266 1.092,0.085 1.357,-0.398 0.265,-0.485 0.086,-1.093 -0.398,-1.357 L -11.599,5.848 -0.134,2.096 29.55,20.665 c 0.469,0.294 1.086,0.151 1.378,-0.317 0.293,-0.468 0.151,-1.085 -0.318,-1.378 L 0.53,0.152 C 0.369,0.052 0.186,0 0,0"
   style="fill:#4f4f51;fill-opacity:1;fill-rule:nonzero;stroke:none;stroke-width:1.58662"
   id="path271"
   inkscape:connector-curvature="0" />




</g>



  <g
   style="opacity:1;fill:#4f4f51;fill-opacity:1;stroke-width:1.58662;stop-opacity:1"
   id="g273"
   transform="matrix(1.3333333,0,0,-1.3333333,122.41576,93.771097)">
  <path
   d="m 0,0 c -0.105,0 -0.211,0.017 -0.312,0.05 l -14.109,4.648 c -0.41,0.136 -0.687,0.519 -0.687,0.95 v 12.816 c 0,0.553 0.447,1 1,1 0.552,0 1,-0.447 1,-1 V 6.372 l 12.963,-4.271 29.88,19.547 c 0.463,0.303 1.082,0.172 1.386,-0.289 0.302,-0.463 0.172,-1.082 -0.29,-1.384 L 0.548,0.163 C 0.383,0.056 0.192,0 0,0"
   style="fill:#4f4f51;fill-opacity:1;fill-rule:nonzero;stroke:none;stroke-width:1.58662"
   id="path275"
   inkscape:connector-curvature="0" />




</g>



  <g
   style="opacity:1;fill:#4f4f51;fill-opacity:1;stroke-width:1.58662;stop-opacity:1"
   id="g277"
   transform="matrix(1.3333333,0,0,-1.3333333,175.90989,58.927365)">
  <path
   d="m 0,0 c -0.328,0 -0.649,0.16 -0.84,0.455 -0.301,0.464 -0.169,1.083 0.294,1.384 l 26.583,17.262 0.03,10.367 c 0.002,0.552 0.45,0.997 1,0.997 h 0.003 c 0.553,-0.002 0.999,-0.45 0.997,-1.003 L 28.035,18.554 C 28.034,18.216 27.863,17.901 27.58,17.718 L 0.543,0.161 C 0.375,0.052 0.186,0 0,0"
   style="fill:#4f4f51;fill-opacity:1;fill-rule:nonzero;stroke:none;stroke-width:1.58662"
   id="path279"
   inkscape:connector-curvature="0" />




</g>



  <g
   style="opacity:1;fill:#4f4f51;fill-opacity:1;stroke-width:1.58662;stop-opacity:1"
   id="g281"
   transform="matrix(1.3333333,0,0,-1.3333333,122.41576,93.771097)">
  <path
   d="m 0,0 c -0.553,0 -1,0.447 -1,1 v 12.847 c 0,0.552 0.447,1 1,1 0.553,0 1,-0.448 1,-1 V 1 C 1,0.447 0.553,0 0,0"
   style="fill:#4f4f51;fill-opacity:1;fill-rule:nonzero;stroke:none;stroke-width:1.58662"
   id="path283"
   inkscape:connector-curvature="0" />




</g>



  <g
   style="opacity:1;fill:#4f4f51;fill-opacity:1;stroke-width:1.58662;stop-opacity:1"
   id="g285"
   transform="matrix(1.3333333,0,0,-1.3333333,175.60855,58.789365)">
  <path
   d="M 0,0 H -0.005 C -0.419,0.002 -0.752,0.34 -0.75,0.754 l 0.064,11.004 -13.567,1.788 c -0.411,0.054 -0.7,0.431 -0.645,0.841 0.052,0.41 0.425,0.71 0.841,0.645 L 0.166,13.158 C 0.541,13.109 0.82,12.789 0.818,12.41 L 0.75,0.745 C 0.748,0.333 0.412,0 0,0"
   style="fill:#4f4f51;fill-opacity:1;fill-rule:nonzero;stroke:none;stroke-width:1.58662"
   id="path287"
   inkscape:connector-curvature="0" />




</g>



  <g
   style="opacity:1;fill:#4f4f51;fill-opacity:1;stroke-width:1.58662;stop-opacity:1"
   id="g289"
   transform="matrix(1.3333333,0,0,-1.3333333,162.97695,66.903898)">
  <path
   d="M 0,0 H -0.021 C -0.436,0.012 -0.762,0.357 -0.75,0.771 l 0.329,11.466 -13.235,2.259 c -0.408,0.069 -0.682,0.457 -0.614,0.865 0.071,0.41 0.456,0.691 0.866,0.614 L 0.473,13.606 C 0.841,13.544 1.108,13.22 1.097,12.846 L 0.75,0.729 C 0.738,0.322 0.404,0 0,0"
   style="fill:#4f4f51;fill-opacity:1;fill-rule:nonzero;stroke:none;stroke-width:1.58662"
   id="path291"
   inkscape:connector-curvature="0" />




</g>



  <g
   style="opacity:1;fill:#4f4f51;fill-opacity:1;stroke-width:1.58662;stop-opacity:1"
   id="g293"
   transform="matrix(1.3333333,0,0,-1.3333333,175.65282,51.590165)">
  <path
   d="m 0,0 c -0.249,0 -0.491,0.123 -0.635,0.349 -0.221,0.349 -0.118,0.812 0.233,1.035 l 27.26,17.29 c 0.351,0.221 0.813,0.117 1.036,-0.233 0.221,-0.349 0.118,-0.812 -0.233,-1.035 L 0.4,0.116 C 0.276,0.038 0.137,0 0,0"
   style="fill:#4f4f51;fill-opacity:1;fill-rule:nonzero;stroke:none;stroke-width:1.58662"
   id="path295"
   inkscape:connector-curvature="0" />




</g>



  <g
   style="opacity:1;fill:#4f4f51;fill-opacity:1;stroke-width:1.58662;stop-opacity:1"
   id="g297"
   transform="matrix(1.3333333,0,0,-1.3333333,122.41709,85.346697)">
  <path
   d="m 0,0 c -0.248,0 -0.49,0.122 -0.633,0.347 -0.223,0.348 -0.121,0.812 0.229,1.035 L 30.18,20.895 c 0.35,0.224 0.813,0.121 1.035,-0.229 0.223,-0.35 0.121,-0.812 -0.229,-1.035 L 0.403,0.118 C 0.278,0.038 0.138,0 0,0"
   style="fill:#4f4f51;fill-opacity:1;fill-rule:nonzero;stroke:none;stroke-width:1.58662"
   id="path299"
   inkscape:connector-curvature="0" />




</g>



  <g
   style="opacity:1;fill:#4f4f51;fill-opacity:1;stroke-width:1.58662;stop-opacity:1"
   id="g301"
   transform="matrix(1.3333333,0,0,-1.3333333,163.44055,50.747632)">
  <path
   d="M 0,0 C -0.253,0 -0.499,0.127 -0.641,0.358 -0.856,0.711 -0.746,1.173 -0.393,1.39 L 8.875,7.068 C 9.228,7.286 9.689,7.174 9.906,6.82 10.122,6.468 10.012,6.006 9.658,5.789 L 0.391,0.11 C 0.269,0.035 0.134,0 0,0"
   style="fill:#4f4f51;fill-opacity:1;fill-rule:nonzero;stroke:none;stroke-width:1.58662"
   id="path303"
   inkscape:connector-curvature="0" />




</g>



  <g
   style="opacity:1;fill:#4f4f51;fill-opacity:1;stroke-width:1.58662;stop-opacity:1"
   id="g305"
   transform="matrix(1.3333333,0,0,-1.3333333,144.19575,47.726832)">
  <path
   d="m 0,0 c -0.264,0 -0.519,0.139 -0.656,0.385 -0.201,0.362 -0.071,0.818 0.29,1.02 L 9.946,7.153 c 0.363,0.203 0.819,0.071 1.021,-0.29 0.201,-0.362 0.071,-0.818 -0.29,-1.02 L 0.365,0.095 C 0.249,0.03 0.123,0 0,0"
   style="fill:#4f4f51;fill-opacity:1;fill-rule:nonzero;stroke:none;stroke-width:1.58662"
   id="path307"
   inkscape:connector-curvature="0" />




</g>



  <g
   style="opacity:1;fill:#4f4f51;fill-opacity:1;stroke-width:1.58662;stop-opacity:1"
   id="g309"
   transform="matrix(1.3333333,0,0,-1.3333333,162.51349,67.636965)">
  <path
   d="m 0,0 c -0.247,0 -0.488,0.121 -0.632,0.344 -0.223,0.348 -0.124,0.812 0.225,1.037 L 9.89,8.017 C 10.24,8.239 10.703,8.14 10.927,7.792 11.15,7.443 11.051,6.979 10.702,6.755 L 0.406,0.119 C 0.279,0.039 0.139,0 0,0"
   style="fill:#4f4f51;fill-opacity:1;fill-rule:nonzero;stroke:none;stroke-width:1.58662"
   id="path311"
   inkscape:connector-curvature="0" />




</g>



</g>






<g
   id="g893"
   transform="translate(-20.445591,-34.010453)"><path
     style="fill:#f9f9f9;fill-opacity:0;stroke:#4f4f51;stroke-width:1.093;stroke-miterlimit:10;stroke-dasharray:none"
     inkscape:connector-curvature="0"
     id="path18"
     d="m 60.227026,42.299573 8.146258,0.0136 c 1.306476,0.0022 1.61323,0.292824 1.610458,1.525876 l -0.02331,10.372138 c -0.0028,1.233051 -0.31083,1.522668 -1.617305,1.520487 l -17.522141,-0.02926 c -1.306476,-0.0022 -3.921802,-2.088904 -5.345711,-3.295206 -1.423909,-1.206302 -2.646224,-1.687739 -2.64234,-3.416739 0.0039,-1.729 2.074473,-3.095102 2.469058,-3.515035 0.394584,-0.419934 4.242673,-3.193702 5.549149,-3.191521 z"
     class="st3"
     sodipodi:nodetypes="ccscsczzzsc" /><ellipse
     style="fill:none;stroke:#4f4f51;stroke-width:0.590986;stroke-linejoin:round;stroke-miterlimit:10;stroke-dasharray:none;stroke-opacity:1"
     id="path883"
     cx="46.773113"
     cy="48.935627"
     rx="1.7045072"
     ry="1.7045071" /></g><path
   style="fill:none;stroke:#4f4f51;stroke-width:0.549;stroke-linecap:butt;stroke-linejoin:miter;stroke-miterlimit:4;stroke-dasharray:none;stroke-opacity:1"
   d="m 20.733257,43.952806 c -4.711131,-6.938212 -3.176062,-9.465441 -2.484051,-14.904307 0.527913,-4.14914 -3.426278,-4.882446 -1.541825,-7.623469 1.884452,-2.741023 5.252639,-6.591026 8.223066,-6.50993"
   id="path889"
   sodipodi:nodetypes="cszc" /><text
   xml:space="preserve"
   style="font-size:14.66670000000000051px;line-height:1.25;font-family:Poppins;-inkscape-font-specification:Poppins;fill:#4d4d4d;"
   x="31.749643"
   y="20.248999"
   id="text897"><tspan
     sodipodi:role="line"
     id="tspan895"
     x="31.749643"
     y="20.248999">R1</tspan></text></svg>
