<svg xmlns="http://www.w3.org/2000/svg" shape-rendering="geometricPrecision" text-rendering="geometricPrecision" image-rendering="optimizeQuality" fill-rule="evenodd" clip-rule="evenodd" viewBox="0 0 512 456.323"><path d="M155.973 43.223C187.119 15.868 223.013 1.405 258.337.098c36.727-1.36 72.763 11.486 102.18 38.81l30.341 28.186 75.479-6.084c24.927-2.009 48.011 20.599 45.471 45.47l-15.012 146.995c-2.539 24.868-20.472 45.467-45.471 45.467h-49.293l-70.66 57.525 5.107-57.525h-42.624v3.573c0 29.56-24.164 53.72-53.723 53.72h-49.386l4.846 54.567c31.837 17.569 63.048 25.015 92.699 21.103 27.807-3.669 54.429-17.375 79.119-42.136l-15.2-13.387 63.242-14.078-7.412 66.223-16.231-15.428c-31.146 27.356-67.04 41.818-102.364 43.126-36.727 1.36-72.763-11.486-102.18-38.811l-8.529-7.923-65.419-53.256H68.915c-29.874 0-50.739-24.421-53.655-52.882L.244 156.359a45.284 45.284 0 01-.103-8.247c1.918-23.82 22.247-43.744 45.855-46.167a46.77 46.77 0 018.551-.115l180.387 14.541c2.586-22.377 21.98-38.48 45.174-40.35l110.201-8.883-35.653-20.239c-32.693-18.559-64.749-26.494-95.166-22.481-27.806 3.668-54.429 17.375-79.119 42.136l15.2 13.387-63.243 14.078 7.413-66.223 16.232 15.427zm121.378 255.632c-23.732-1.438-42.714-21.298-42.714-45.38V132.892L53.257 118.27a30.697 30.697 0 00-5.585.046h-.032c-15.704 1.603-29.781 15.203-31.06 31.086a29.058 29.058 0 00.039 5.281l15.012 147.026c2.031 19.907 16.058 38.022 37.284 38.022h50.187l57.861 47.103-4.183-47.103h67.352c20.449 0 37.219-16.766 37.219-37.216v-3.66zM90.787 173.84h43.401v-12.228h19.389v12.228h43.558v20.079h-8.943c-1.613 12.681-5.159 23.132-11.184 34.396-5.097 9.514-11.678 18.679-19.318 27.464 12.195 14.587 27.337 27.277 45.364 38.845l-9.971 15.544c-18.927-12.143-35.001-25.515-48.21-40.916-11.817 11.43-25.239 22.079-39.3 31.803l-10.482-15.171c13.914-9.626 27.131-20.142 38.504-31.353-10.481-15.336-18.508-32.549-24.063-52.343l17.787-4.987c4.555 16.236 10.941 30.527 19.151 43.318 5.598-6.778 10.441-13.736 14.266-20.88 4.692-8.776 7.213-16.032 8.801-25.72h-78.75V173.84zm309.023 40.975h-54.066l-7.21 24.607h-27.686c11.758-31.119 25.335-68.486 37.098-99.621 4.235-11.244 9.057-29.879 24.463-29.879 15.972 0 21.275 17.073 25.718 28.869l37.663 101.14h-28.545l-7.435-25.116zm-5.884-23.929l-21.084-55.793-21.148 55.793h42.232z"/></svg>